<svg xmlns="http://www.w3.org/2000/svg" width="1200" height="500" viewBox="0 0 1200 500" role="img" aria-label="Abstract analysis-themed banner">
  <defs>
    <linearGradient id="bg" x1="0" y1="0" x2="1" y2="1">
      <stop offset="0" stop-color="#0b3d91"/>
      <stop offset="1" stop-color="#0f2f62"/>
    </linearGradient>
  </defs>

  <rect width="1200" height="500" fill="url(#bg)"/>

  <g opacity="0.22">
    <path d="M0 360 C 220 310, 320 480, 560 420 C 820 355, 930 320, 1200 360 L 1200 500 L 0 500 Z" fill="#ffffff"/>
  </g>

  <g transform="translate(100 95)">
    <rect x="0" y="0" width="980" height="310" rx="22" fill="#ffffff" opacity="0.9"/>

    <text x="40" y="55" font-family="Georgia, 'Times New Roman', Times, serif" font-size="30" fill="#0b3d91">Context & reasoning</text>

    <g transform="translate(40 95)" opacity="0.95">
      <rect x="0" y="0" width="280" height="180" rx="16" fill="#e8eef9"/>
      <rect x="320" y="0" width="280" height="180" rx="16" fill="#e8eef9"/>
      <rect x="640" y="0" width="280" height="180" rx="16" fill="#e8eef9"/>

      <path d="M40 145 L40 70 L90 95 L140 55 L190 85 L240 60" fill="none" stroke="#0b3d91" stroke-width="6" stroke-linecap="round"/>
      <path d="M360 145 L360 90 L410 110 L460 75 L510 120 L560 85" fill="none" stroke="#0b3d91" stroke-width="6" stroke-linecap="round"/>
      <path d="M680 145 L680 80 L730 100 L780 65 L830 105 L880 70" fill="none" stroke="#0b3d91" stroke-width="6" stroke-linecap="round"/>

      <text x="28" y="30" font-family="Arial, Helvetica, sans-serif" font-size="18" fill="#0b3d91">Signal</text>
      <text x="348" y="30" font-family="Arial, Helvetica, sans-serif" font-size="18" fill="#0b3d91">Interpretation</text>
      <text x="668" y="30" font-family="Arial, Helvetica, sans-serif" font-size="18" fill="#0b3d91">Implications</text>
    </g>
  </g>

  <text x="100" y="455" font-family="Arial, Helvetica, sans-serif" font-size="16" fill="#ffffff" opacity="0.9">Original SVG created for this project (license-free).</text>
</svg>
