<svg xmlns="http://www.w3.org/2000/svg" width="1200" height="500" viewBox="0 0 1200 500" role="img" aria-label="Abstract sources and links banner">
  <defs>
    <linearGradient id="bg" x1="0" y1="0" x2="1" y2="1">
      <stop offset="0" stop-color="#0b3d91"/>
      <stop offset="1" stop-color="#132f5c"/>
    </linearGradient>
  </defs>

  <rect width="1200" height="500" fill="url(#bg)"/>

  <g transform="translate(110 95)">
    <rect x="0" y="0" width="980" height="310" rx="22" fill="#ffffff" opacity="0.9"/>

    <text x="40" y="60" font-family="Georgia, 'Times New Roman', Times, serif" font-size="30" fill="#0b3d91">News sources</text>

    <g transform="translate(40 95)" opacity="0.95">
      <rect x="0" y="0" width="900" height="56" rx="14" fill="#e8eef9"/>
      <rect x="0" y="74" width="900" height="56" rx="14" fill="#e8eef9"/>
      <rect x="0" y="148" width="900" height="56" rx="14" fill="#e8eef9"/>
      <rect x="0" y="222" width="900" height="56" rx="14" fill="#e8eef9"/>

      <circle cx="32" cy="28" r="10" fill="#0b3d91"/>
      <circle cx="32" cy="102" r="10" fill="#0b3d91"/>
      <circle cx="32" cy="176" r="10" fill="#0b3d91"/>
      <circle cx="32" cy="250" r="10" fill="#0b3d91"/>

      <rect x="60" y="20" width="520" height="16" rx="8" fill="#0b3d91" opacity="0.35"/>
      <rect x="60" y="94" width="470" height="16" rx="8" fill="#0b3d91" opacity="0.35"/>
      <rect x="60" y="168" width="560" height="16" rx="8" fill="#0b3d91" opacity="0.35"/>
      <rect x="60" y="242" width="420" height="16" rx="8" fill="#0b3d91" opacity="0.35"/>
    </g>
  </g>

  <g opacity="0.18">
    <circle cx="1040" cy="120" r="90" fill="#ffffff"/>
    <circle cx="180" cy="420" r="110" fill="#ffffff"/>
  </g>

  <text x="110" y="455" font-family="Arial, Helvetica, sans-serif" font-size="16" fill="#ffffff" opacity="0.9">Original SVG created for this project (license-free).</text>
</svg>
