<?xml version="1.0" encoding="UTF-8"?>
<svg xmlns="http://www.w3.org/2000/svg" width="600" height="400" viewBox="0 0 600 400" role="img" aria-label="Minimal waves in teal and blue">
  <defs>
    <linearGradient id="bg" x1="0" x2="1" y1="0" y2="1">
      <stop offset="0" stop-color="#e8eef9"/>
      <stop offset="1" stop-color="#ffffff"/>
    </linearGradient>
  </defs>
  <rect width="600" height="400" fill="url(#bg)"/>
  <path d="M0,210 C100,170 200,250 300,210 C400,170 500,250 600,210 L600,400 L0,400 Z" fill="#1a5fc9" opacity="0.8"/>
  <path d="M0,250 C100,210 200,290 300,250 C400,210 500,290 600,250 L600,400 L0,400 Z" fill="#0b3d91" opacity="0.75"/>
  <path d="M0,290 C100,250 200,330 300,290 C400,250 500,330 600,290 L600,400 L0,400 Z" fill="#2bbbad" opacity="0.7"/>
</svg>
