<?xml version="1.0" encoding="UTF-8"?>
<svg xmlns="http://www.w3.org/2000/svg" width="600" height="400" viewBox="0 0 600 400" role="img" aria-label="Abstract night sky with stars">
  <rect width="600" height="400" fill="#0b1020"/>
  <g fill="#ffffff" opacity="0.9">
    <circle cx="70" cy="90" r="2"/>
    <circle cx="150" cy="60" r="1.5"/>
    <circle cx="240" cy="120" r="2"/>
    <circle cx="330" cy="70" r="1.8"/>
    <circle cx="420" cy="110" r="2.2"/>
    <circle cx="520" cy="55" r="1.7"/>
    <circle cx="560" cy="140" r="1.6"/>
    <circle cx="110" cy="170" r="1.7"/>
    <circle cx="210" cy="190" r="1.9"/>
    <circle cx="310" cy="160" r="1.6"/>
    <circle cx="470" cy="180" r="2"/>
  </g>
  <circle cx="470" cy="120" r="55" fill="#ffd54f" opacity="0.95"/>
  <path d="M0,290 C120,260 190,330 310,300 C410,275 480,315 600,280 L600,400 L0,400 Z" fill="#1a5fc9" opacity="0.6"/>
  <path d="M0,320 C130,295 210,360 340,330 C440,305 510,340 600,315 L600,400 L0,400 Z" fill="#08306b" opacity="0.8"/>
</svg>
