<svg xmlns="http://www.w3.org/2000/svg" width="1200" height="500" viewBox="0 0 1200 500" role="img" aria-label="Abstract news-themed banner">
  <defs>
    <linearGradient id="bg" x1="0" y1="0" x2="1" y2="1">
      <stop offset="0" stop-color="#0b3d91"/>
      <stop offset="1" stop-color="#163e7a"/>
    </linearGradient>
    <linearGradient id="card" x1="0" y1="0" x2="0" y2="1">
      <stop offset="0" stop-color="#ffffff" stop-opacity="0.92"/>
      <stop offset="1" stop-color="#ffffff" stop-opacity="0.82"/>
    </linearGradient>
  </defs>

  <rect width="1200" height="500" fill="url(#bg)"/>

  <g opacity="0.25">
    <circle cx="150" cy="140" r="90" fill="#ffffff"/>
    <circle cx="1080" cy="90" r="70" fill="#ffffff"/>
    <circle cx="990" cy="420" r="120" fill="#ffffff"/>
  </g>

  <g transform="translate(90 95)">
    <rect x="0" y="0" width="820" height="310" rx="22" fill="url(#card)"/>

    <rect x="40" y="55" width="340" height="20" rx="10" fill="#0b3d91" opacity="0.85"/>
    <rect x="40" y="90" width="650" height="14" rx="7" fill="#0b3d91" opacity="0.35"/>
    <rect x="40" y="120" width="610" height="14" rx="7" fill="#0b3d91" opacity="0.35"/>

    <rect x="40" y="170" width="260" height="14" rx="7" fill="#0b3d91" opacity="0.35"/>
    <rect x="40" y="195" width="700" height="14" rx="7" fill="#0b3d91" opacity="0.25"/>
    <rect x="40" y="220" width="680" height="14" rx="7" fill="#0b3d91" opacity="0.25"/>

    <text x="40" y="40" font-family="Georgia, 'Times New Roman', Times, serif" font-size="28" fill="#0b3d91">Latest updates</text>
  </g>

  <g transform="translate(960 140)">
    <rect x="0" y="0" width="160" height="220" rx="20" fill="#ffffff" opacity="0.18"/>
    <path d="M32 62h96v12H32zM32 92h96v12H32zM32 122h72v12H32z" fill="#ffffff" opacity="0.55"/>
    <circle cx="50" cy="166" r="18" fill="#ffffff" opacity="0.55"/>
    <path d="M78 156h60v12H78zM78 178h48v12H78z" fill="#ffffff" opacity="0.55"/>
  </g>

  <text x="90" y="455" font-family="Arial, Helvetica, sans-serif" font-size="16" fill="#ffffff" opacity="0.9">Original SVG created for this project (license-free).</text>
</svg>
